PathFileType	4	(X/Y/Z)	Gait_norma_markers.trc
DataRate	CameraRate	NumFrames	NumMarkers	Units	OrigDataRate	OrigDataStartFrame	OrigNumFrames
100	100	10	38	m	100	1	90
Frame#	Time	RASI			RPSI			LPSI			LASI			RTROCH			RTHI			RTHI2			RTHI3			RTHI4			RKNE			RKNEM			RTIB			RTIB2			RTIB3			RTIB4			RANK			RANKM			RHEE			RTOE			RTOEL			RTOEM			LTROCH			LTHI			LTHI2			LTHI3			LTHI4			LKNE			LKNEM			LTIB			LTIB2			LTIB3			LTIB4			LANK			LANKM			LHEE			LTOE			LTOEL			LTOEM
		X1	Y1	Z1	X2	Y2	Z2	X3	Y3	Z3	X4	Y4	Z4	X5	Y5	Z5	X6	Y6	Z6	X7	Y7	Z7	X8	Y8	Z8	X9	Y9	Z9	X10	Y10	Z10	X11	Y11	Z11	X12	Y12	Z12	X13	Y13	Z13	X14	Y14	Z14	X15	Y15	Z15	X16	Y16	Z16	X17	Y17	Z17	X18	Y18	Z18	X19	Y19	Z19	X20	Y20	Z20	X21	Y21	Z21	X22	Y22	Z22	X23	Y23	Z23	X24	Y24	Z24	X25	Y25	Z25	X26	Y26	Z26	X27	Y27	Z27	X28	Y28	Z28	X29	Y29	Z29	X30	Y30	Z30	X31	Y31	Z31	X32	Y32	Z32	X33	Y33	Z33	X34	Y34	Z34	X35	Y35	Z35	X36	Y36	Z36	X37	Y37	Z37	X38	Y38	Z38

1	0.000000	-0.362653	0.954067	-0.921627	-0.301592	0.997682	-1.106090	-0.205778	0.986837	-1.103915	-0.137877	0.965491	-0.917614	-0.423769	0.882628	-0.997866	-0.431233	0.773966	-1.026401	-0.413985	0.767017	-0.962802	-0.395510	0.689430	-0.957673	-0.416640	0.686590	-1.029844	-0.378800	0.535034	-1.059901	-0.266090	0.544412	-1.065397	-0.396427	0.406905	-1.118331	-0.367760	0.396935	-1.060477	-0.362408	0.310684	-1.077170	-0.392319	0.326581	-1.135570	-0.328150	0.111209	-1.180618	-0.260999	0.114721	-1.144198	-0.282146	0.060676	-1.238016	-0.343585	0.056145	-1.006699	-0.392688	0.041686	-1.069544	-0.286942	0.033196	-1.017112	-0.082499	0.894839	-0.990584	-0.068088	0.707722	-0.884148	-0.082983	0.726577	-0.826262	-0.091331	0.648436	-0.801280	-0.079642	0.621841	-0.859956	-0.097781	0.548381	-0.806964	-0.202651	0.566026	-0.795156	-0.081474	0.325538	-0.810221	-0.094422	0.340433	-0.748518	-0.102102	0.253139	-0.741114	-0.091661	0.243607	-0.801487	-0.113876	0.110192	-0.774548	-0.182137	0.140072	-0.733373	-0.171190	0.058361	-0.813249	-0.098238	0.096072	-0.592172	-0.056402	0.070102	-0.644619	-0.152023	0.083786	-0.598413
2	0.010000	-0.363098	0.951945	-0.911254	-0.300098	0.996076	-1.095028	-0.204267	0.984654	-1.091568	-0.138276	0.962684	-0.904905	-0.423389	0.881764	-0.988938	-0.430846	0.773197	-1.018707	-0.414798	0.765488	-0.954884	-0.396534	0.687923	-0.950530	-0.416855	0.685791	-1.022761	-0.378850	0.534213	-1.054037	-0.266040	0.543725	-1.058544	-0.396325	0.406820	-1.114443	-0.367838	0.396209	-1.056378	-0.362482	0.309991	-1.074337	-0.392140	0.326837	-1.132408	-0.327792	0.111913	-1.179976	-0.260739	0.114972	-1.143409	-0.281835	0.061116	-1.237734	-0.343197	0.056278	-1.007042	-0.392533	0.042135	-1.069958	-0.286992	0.032992	-1.017015	-0.084620	0.891264	-0.979770	-0.069012	0.703201	-0.875222	-0.084680	0.720853	-0.817147	-0.093227	0.641797	-0.794182	-0.079913	0.617767	-0.852233	-0.096830	0.544552	-0.799537	-0.205211	0.559670	-0.790091	-0.081897	0.321295	-0.790795	-0.095085	0.340316	-0.730180	-0.102739	0.254008	-0.716289	-0.091272	0.240161	-0.776423	-0.112582	0.108426	-0.739968	-0.181110	0.140647	-0.701057	-0.169561	0.054096	-0.775426	-0.097953	0.106033	-0.556633	-0.055767	0.076799	-0.607150	-0.151494	0.093315	-0.562294
3	0.020000	-0.363579	0.950024	-0.900606	-0.298523	0.994262	-1.083836	-0.202751	0.982368	-1.079187	-0.138561	0.959837	-0.891871	-0.423282	0.880332	-0.979525	-0.431015	0.771653	-1.010242	-0.415580	0.763858	-0.946733	-0.401931	0.681466	-0.952647	-0.417050	0.684650	-1.015296	-0.379030	0.533442	-1.047964	-0.267367	0.542732	-1.050522	-0.396133	0.406779	-1.110073	-0.367896	0.395381	-1.052015	-0.362382	0.309530	-1.071118	-0.391888	0.327115	-1.129074	-0.327418	0.112708	-1.179340	-0.260413	0.115306	-1.142484	-0.281553	0.061415	-1.237306	-0.343164	0.056102	-1.006904	-0.392818	0.042346	-1.070347	-0.286680	0.032916	-1.017190	-0.080580	0.889489	-0.964277	-0.071347	0.696235	-0.866761	-0.086296	0.715058	-0.808155	-0.094976	0.635295	-0.786843	-0.081161	0.611559	-0.845400	-0.098271	0.539083	-0.792562	-0.208124	0.552958	-0.786835	-0.081636	0.317889	-0.772046	-0.095531	0.340591	-0.712660	-0.102440	0.255393	-0.693144	-0.091367	0.237606	-0.752426	-0.110856	0.109084	-0.706995	-0.180033	0.142489	-0.670220	-0.168682	0.052491	-0.739509	-0.098132	0.117226	-0.523339	-0.055637	0.084672	-0.571539	-0.151583	0.104402	-0.528601
4	0.030000	-0.364796	0.947945	-0.889293	-0.296741	0.992109	-1.072386	-0.200939	0.979792	-1.066551	-0.138878	0.956940	-0.878725	-0.423141	0.878925	-0.970038	-0.430958	0.770835	-1.001699	-0.416403	0.762407	-0.938385	-0.403294	0.680625	-0.945462	-0.416910	0.683445	-1.007068	-0.378958	0.532698	-1.041417	-0.264535	0.541351	-1.042712	-0.395688	0.406814	-1.105068	-0.367740	0.394619	-1.047288	-0.362281	0.308971	-1.067595	-0.391485	0.327515	-1.125491	-0.327021	0.113744	-1.178641	-0.260023	0.115726	-1.141481	-0.281044	0.062000	-1.236932	-0.343234	0.055883	-1.006788	-0.392761	0.042406	-1.070318	-0.286662	0.032104	-1.016612	-0.080366	0.886499	-0.950937	-0.071497	0.691678	-0.857466	-0.088350	0.709088	-0.799144	-0.096351	0.628813	-0.779642	-0.080347	0.606412	-0.838072	-0.099371	0.533779	-0.785671	-0.210855	0.546372	-0.782910	-0.081349	0.315503	-0.754048	-0.095702	0.341597	-0.696372	-0.102200	0.257591	-0.671453	-0.089825	0.236884	-0.729846	-0.109598	0.110327	-0.676010	-0.179262	0.146365	-0.642029	-0.166929	0.051427	-0.705190	-0.099032	0.129188	-0.492447	-0.055653	0.093884	-0.538049	-0.152591	0.116423	-0.497809
5	0.040000	-0.364924	0.946294	-0.878204	-0.294868	0.989777	-1.060872	-0.199367	0.977213	-1.054406	-0.139291	0.953975	-0.865628	-0.422886	0.877481	-0.960269	-0.430038	0.769548	-0.992744	-0.417091	0.760800	-0.929586	-0.404061	0.679058	-0.937273	-0.416403	0.682488	-0.998999	-0.378820	0.531883	-1.034529	-0.264505	0.540726	-1.034452	-0.395201	0.407082	-1.099815	-0.367613	0.393789	-1.042304	-0.362159	0.308437	-1.063946	-0.391000	0.327906	-1.121583	-0.326570	0.114789	-1.177830	-0.259628	0.116213	-1.140370	-0.280527	0.062683	-1.236501	-0.343288	0.055665	-1.006690	-0.392330	0.042247	-1.069863	-0.287359	0.032184	-1.016445	-0.080218	0.883366	-0.937313	-0.070536	0.687397	-0.847734	-0.090438	0.703300	-0.790252	-0.097131	0.622451	-0.772241	-0.077755	0.601539	-0.829998	-0.101522	0.527363	-0.778492	-0.213970	0.540206	-0.778689	-0.080967	0.313883	-0.736939	-0.095931	0.342914	-0.681066	-0.102684	0.260192	-0.650924	-0.088946	0.236314	-0.708225	-0.108626	0.112598	-0.647243	-0.178542	0.150436	-0.615984	-0.165609	0.052196	-0.673792	-0.100859	0.141185	-0.464371	-0.056472	0.103655	-0.507048	-0.154211	0.128383	-0.469853
6	0.050000	-0.365137	0.944350	-0.867156	-0.292867	0.987259	-1.049187	-0.197734	0.975003	-1.042193	-0.139532	0.951037	-0.852554	-0.422542	0.875841	-0.950169	-0.429507	0.768581	-0.983596	-0.417540	0.759271	-0.920626	-0.404705	0.677615	-0.928868	-0.416143	0.681558	-0.990591	-0.378525	0.531103	-1.027253	-0.265700	0.539409	-1.025154	-0.394475	0.406957	-1.094331	-0.367536	0.393031	-1.037148	-0.361940	0.307935	-1.060006	-0.390438	0.328404	-1.117441	-0.326132	0.116020	-1.176782	-0.259104	0.116879	-1.139114	-0.280060	0.063679	-1.236004	-0.343300	0.055332	-1.006572	-0.392234	0.042306	-1.069810	-0.287973	0.031724	-1.015992	-0.079934	0.880275	-0.923423	-0.068656	0.683503	-0.837447	-0.092046	0.698170	-0.781299	-0.096741	0.616878	-0.763964	-0.073476	0.597347	-0.820677	-0.097979	0.525622	-0.769416	-0.216430	0.535368	-0.773519	-0.080918	0.312357	-0.721447	-0.095804	0.344054	-0.666896	-0.102448	0.262702	-0.632928	-0.088684	0.236309	-0.689050	-0.108365	0.114894	-0.621249	-0.178233	0.154395	-0.592402	-0.164401	0.052535	-0.644339	-0.103001	0.152350	-0.439426	-0.057940	0.112847	-0.479537	-0.156393	0.139400	-0.445110
7	0.060000	-0.365373	0.942328	-0.856026	-0.290868	0.984787	-1.037553	-0.195751	0.972227	-1.029608	-0.139897	0.948177	-0.839566	-0.422138	0.874134	-0.939871	-0.428968	0.767535	-0.974118	-0.417867	0.757923	-0.911375	-0.404938	0.675981	-0.919823	-0.415763	0.680530	-0.981684	-0.378160	0.530263	-1.019381	-0.263710	0.538695	-1.016673	-0.393786	0.407033	-1.088389	-0.367659	0.392448	-1.031859	-0.361545	0.307410	-1.055606	-0.389816	0.328979	-1.112856	-0.326357	0.117382	-1.175693	-0.258820	0.117669	-1.137797	-0.279803	0.065309	-1.235378	-0.343299	0.054894	-1.006506	-0.392144	0.042347	-1.069770	-0.287373	0.031865	-1.016190	-0.079445	0.877188	-0.909344	-0.066793	0.680349	-0.826623	-0.092576	0.694080	-0.771138	-0.095997	0.612875	-0.754232	-0.070259	0.594101	-0.809863	-0.099336	0.521844	-0.759401	-0.216709	0.532365	-0.766012	-0.081315	0.311114	-0.707947	-0.095170	0.344221	-0.653693	-0.101374	0.264398	-0.616943	-0.089191	0.234726	-0.671266	-0.109511	0.115530	-0.597814	-0.178223	0.157792	-0.571637	-0.166235	0.055814	-0.620919	-0.104630	0.161310	-0.417859	-0.059796	0.119443	-0.455852	-0.158911	0.148466	-0.424154
8	0.070000	-0.365572	0.940459	-0.844555	-0.288849	0.982138	-1.025624	-0.193799	0.969621	-1.017267	-0.140203	0.945555	-0.826738	-0.421606	0.872461	-0.929299	-0.428625	0.766657	-0.964411	-0.417834	0.756252	-0.901406	-0.404893	0.674353	-0.910418	-0.415197	0.679395	-0.972297	-0.377836	0.529580	-1.011119	-0.263013	0.537693	-1.007093	-0.393310	0.407426	-1.081861	-0.367229	0.391458	-1.025562	-0.361206	0.307043	-1.050929	-0.389287	0.329747	-1.107867	-0.325663	0.118981	-1.174402	-0.258625	0.118680	-1.136378	-0.279711	0.067468	-1.234681	-0.343253	0.054313	-1.006450	-0.392101	0.042386	-1.069683	-0.287390	0.031660	-1.016013	-0.078776	0.874165	-0.895345	-0.066018	0.677776	-0.814892	-0.091978	0.692208	-0.759605	-0.097375	0.611098	-0.742693	-0.071184	0.591749	-0.797965	-0.098810	0.519985	-0.748714	-0.215974	0.530502	-0.755720	-0.081172	0.309328	-0.694885	-0.094423	0.343657	-0.641029	-0.101100	0.264699	-0.602385	-0.089480	0.234025	-0.656483	-0.110335	0.115574	-0.578700	-0.178275	0.160021	-0.554102	-0.168038	0.056389	-0.600283	-0.105772	0.166958	-0.400210	-0.061443	0.123216	-0.436040	-0.160095	0.155541	-0.406693
9	0.080000	-0.365550	0.938489	-0.833126	-0.287189	0.979969	-1.014050	-0.192026	0.967172	-1.005130	-0.140246	0.943078	-0.814220	-0.420971	0.870884	-0.918501	-0.427663	0.765165	-0.953849	-0.417746	0.754860	-0.891325	-0.404802	0.673014	-0.900714	-0.414542	0.678205	-0.962427	-0.376967	0.528506	-1.001939	-0.262321	0.536583	-0.997187	-0.392601	0.407395	-1.074794	-0.367093	0.390893	-1.019069	-0.361072	0.306608	-1.045883	-0.388797	0.330308	-1.102212	-0.325701	0.120876	-1.173004	-0.258713	0.120028	-1.134872	-0.279917	0.069866	-1.233919	-0.343383	0.053904	-1.006506	-0.392079	0.042391	-1.069582	-0.287463	0.031585	-1.015797	-0.077873	0.871712	-0.881751	-0.066087	0.676382	-0.801347	-0.092114	0.692013	-0.746430	-0.099583	0.611235	-0.728880	-0.072948	0.590922	-0.783913	-0.098424	0.518773	-0.736405	-0.214898	0.528764	-0.742828	-0.081534	0.307708	-0.681700	-0.094000	0.342383	-0.627844	-0.101492	0.263557	-0.588679	-0.090128	0.232526	-0.642767	-0.111181	0.113932	-0.563443	-0.178498	0.160232	-0.539840	-0.170006	0.055428	-0.584032	-0.106548	0.168390	-0.385787	-0.063157	0.122117	-0.419953	-0.160941	0.158732	-0.392611
10	0.090000	-0.365070	0.936474	-0.821542	-0.285444	0.977557	-1.001823	-0.190488	0.964960	-0.993005	-0.139839	0.941127	-0.801721	-0.420407	0.868926	-0.907761	-0.426871	0.763992	-0.943229	-0.417305	0.753638	-0.880897	-0.404366	0.671468	-0.890246	-0.413787	0.677012	-0.952064	-0.376467	0.527672	-0.992305	-0.261681	0.535465	-0.986843	-0.392186	0.407870	-1.067135	-0.366353	0.389440	-1.011403	-0.360755	0.306233	-1.040209	-0.388347	0.330727	-1.095767	-0.326563	0.123075	-1.171513	-0.258953	0.121595	-1.133252	-0.280381	0.072788	-1.233245	-0.343215	0.053434	-1.006377	-0.392148	0.042366	-1.069422	-0.288506	0.031188	-1.015264	-0.076893	0.869816	-0.868985	-0.067319	0.676240	-0.786537	-0.093700	0.692688	-0.731822	-0.101586	0.612235	-0.713351	-0.074650	0.590941	-0.767969	-0.098146	0.518492	-0.722253	-0.213691	0.527632	-0.727748	-0.081994	0.306318	-0.668538	-0.094239	0.340319	-0.614079	-0.101450	0.261322	-0.575776	-0.090653	0.231373	-0.630788	-0.111961	0.111258	-0.551675	-0.179213	0.157899	-0.528222	-0.171125	0.053138	-0.572712	-0.107328	0.165564	-0.373916	-0.064424	0.118587	-0.407998	-0.162020	0.156459	-0.381250
